<?xml version="1.0" encoding="utf-8"?>
<!-- Generator: Adobe Illustrator 16.0.0, SVG Export Plug-In . SVG Version: 6.00 Build 0)  -->
<!DOCTYPE svg PUBLIC "-//W3C//DTD SVG 1.1//EN" "http://www.w3.org/Graphics/SVG/1.1/DTD/svg11.dtd">
<svg version="1.1" id="Layer_1" xmlns="http://www.w3.org/2000/svg" xmlns:xlink="http://www.w3.org/1999/xlink" x="0px" y="0px"
	 width="511px" height="511px" viewBox="0 0 511 511" style="enable-background:new 0 0 511 511;" xml:space="preserve">
<g>
	<path class="st2" d="M240,1c11,0,22,0,33,0c9.4,1.3,18.8,2.4,28.1,4c103.9,17.2,189.8,103.3,207,207.5c1.6,9.5,2.6,19,3.9,28.6
		c0,10.3,0,20.7,0,31c-0.3,1.6-0.6,3.2-0.9,4.8c-2.4,14.4-3.8,29.1-7.3,43.3C479.9,416.4,398,491.9,300.1,508.1
		c-9.3,1.6-18.7,2.6-28.1,3.9c-10.3,0-20.7,0-31,0c-1.3-0.3-2.6-0.7-3.9-0.8c-20.9-1.5-41.4-5.1-61-12.3
		C82.1,464.6,24.7,398.4,4.9,300.1C3,290.8,2.3,281.4,1,272c0-10.3,0-20.7,0-31c0.3-1.6,0.6-3.2,0.9-4.8c1.7-11.5,2.8-23.2,5.2-34.5
		C28.3,101.5,111.3,22,212.4,4.9C221.5,3.3,230.8,2.3,240,1z M256.5,18.7c-131.3,0-237.8,106.4-237.9,237.7
		c0,131.2,106.5,237.8,237.8,237.9c131.2,0,237.8-106.5,237.9-237.8C494.3,125.3,387.8,18.7,256.5,18.7z"/>
	<path class="st2" style="fill-rule:evenodd;clip-rule:evenodd;fill:#FFFFFF;" d="M272,512c9.4-1.3,18.8-2.3,28.1-3.9
		c97.8-16.3,179.8-91.7,203.7-188.1c3.5-14.2,4.9-28.8,7.3-43.3c0.3-1.6,0.6-3.2,0.9-4.8c0,80,0,160,0,240C432,512,352,512,272,512z
		"/>
	<path class="st2" style="fill-rule:evenodd;clip-rule:evenodd;fill:#FFFFFF;" d="M1,272c1.3,9.4,2,18.8,3.9,28.1
		c19.8,98.3,77.2,164.5,171.3,198.8c19.6,7.2,40.2,10.8,61,12.3c1.3,0.1,2.6,0.5,3.9,0.8c-80,0-160,0-240,0C1,432,1,352,1,272z"/>
	<path class="st2" style="fill-rule:evenodd;clip-rule:evenodd;fill:#FFFFFF;" d="M512,241c-1.3-9.5-2.3-19.1-3.9-28.6
		C490.9,108.2,405,22.1,301.1,5c-9.3-1.5-18.7-2.6-28.1-4c79.7,0,159.3,0,239,0C512,81,512,161,512,241z"/>
	<path class="st2" style="fill-rule:evenodd;clip-rule:evenodd;fill:#FFFFFF;" d="M240,1c-9.2,1.3-18.5,2.3-27.6,3.9
		C111.3,22,28.3,101.5,7.1,201.6c-2.4,11.4-3.5,23-5.2,34.5c-0.2,1.6-0.6,3.2-0.9,4.8C1,161.1,1,81.2,1,1C80.7,1,160.3,1,240,1z"/>
	<path class="st2" style="fill-rule:evenodd;clip-rule:evenodd;fill:#FFFFFF;" d="M256.5,18.7c131.3,0,237.8,106.6,237.8,237.8
		c0,131.3-106.6,237.8-237.9,237.8c-131.3,0-237.8-106.6-237.8-237.9C18.7,125.1,125.3,18.7,256.5,18.7z M256.4,441.4
		c-95.9,0.1-177.3-74.1-183.9-169.8c-4.9-69.6,21.7-126.1,78.7-166.8c39.7-28.3,84.6-37.9,132.9-31.2c6.7,0.9,11.3-1.9,12-7.4
		c0.6-5.4-3-9.2-9.3-10.1c-18.9-2.6-37.8-2.9-56.8-0.3C118.6,70.8,41.1,172,55.8,283.1C70.8,396.8,177,476,290,455.9
		c77.3-13.7,131.3-58.7,157.3-132.7c26-73.9,10.8-141.8-39.7-201.5c-7.5-8.8-16.7-16.3-25.4-24c-4.6-4.1-9.9-3.5-13.2,0.7
		c-3.2,4.1-2.4,8.8,2,12.7c0.9,0.8,1.8,1.5,2.7,2.2c51.6,44.3,74.1,100.5,65.9,167.8C428.4,372.5,348.9,441.3,256.4,441.4z
		 M198.3,318.1c2.2-6.5,4-12.5,6.1-18.4c4.9-13.1,13.3-23.3,25-30.8c3.4-2.1,6.9-4.1,10.2-6.2c10.2-6.6,16.1-15.9,16.6-28.1
		c0.4-8.6,0.5-17.3-0.2-26c-1.2-15.3-13.1-28.4-28.3-30.6c-7-1-14.4-1.1-21.3-0.1c-14.5,2.3-23.9,11.3-27.9,25.3
		c-1.4,5.2-1.2,10.9-1.4,16.3c-0.1,6.4,3.5,10.5,8.8,10.4c5.3,0,9.3-4.1,8.7-10.5c-1.5-16.6,5.8-26.4,25.4-24.7c0.3,0,0.7,0,1,0
		c10.2,0.3,17.4,7.5,17.7,17.8c0.1,3.8-0.4,7.7,0.1,11.5c1.6,13.3-3.8,21.8-15.7,28.1c-17.4,9.2-29.2,23.9-35.8,42.6
		c-2,5.6-3.9,11.3-5.7,17c-4,12.7,3.9,23.7,17.3,24c0.2,0,0.3,0,0.5,0c15.3,0,30.6,0,46,0c6.8,0,10.9-3.5,10.9-9
		c-0.1-5.5-4.1-8.7-11.1-8.8c-13.8,0-27.7,0-41.5,0C202.3,318.1,200.6,318.1,198.3,318.1z M335.9,264.9c0-2.1,0-3.9,0-5.7
		c0-23.5,0-47,0-70.5c0-6.4-2-9.6-6.6-10.9c-4.5-1.3-7.8,0.5-11.2,6.1c-1.9,3.1-3.8,6.3-5.6,9.4c-15,25-30,49.9-44.9,74.9
		c-4.8,8-0.9,14.7,8.4,14.8c4,0,8,0,12,0c9.9,0,19.9,0,30.3,0c0,2.4,0,4.2,0,5.9c0,12.2,0,24.3,0,36.5c0,6.3,3.7,10.5,8.9,10.5
		c5.2-0.1,8.7-4.2,8.8-10.6c0-2.7,0-5.3,0-8c0-11.3,0-22.6,0-34.1c7.5-0.8,16.8,2.1,17.4-9.4C353.5,267.9,350,266.2,335.9,264.9z
		 M324.9,66c-4.8,0.5-7.8,2.4-9,6.6c-1.2,4.3,0.7,8.3,4.9,10.3c6.4,2.9,12.8,5.7,19.2,8.4c4.7,1.9,9.4,0.2,11.5-4
		c2.2-4.3,0.6-9.4-4.2-11.8c-5.6-2.8-11.5-5.2-17.3-7.7C328.3,66.9,326.4,66.5,324.9,66z M180.3,168.6c-1-2.6-1.3-4.5-2.3-5.6
		c-4.7-5.1-9.4-10.4-14.6-15c-3.4-3-7.5-2.2-10.9,0.8c-3.2,2.9-3.9,8-1,11.3c4.5,5.1,9.1,10.3,14.4,14.5c2,1.6,6.5,1.6,9.1,0.5
		C177.4,174.1,178.7,170.6,180.3,168.6z M127.9,190.3c-4.5,0.5-7.6,2.5-8.7,6.7c-1.1,4.2,0.4,7.8,4.2,9.7c5.6,2.9,11.4,5.4,17.3,7.7
		c4.4,1.7,9-0.3,11-4.3c2.1-4.3,0.6-9.2-3.9-11.5c-5.6-2.8-11.5-5.2-17.3-7.7C129.6,190.5,128.6,190.4,127.9,190.3z M219.2,140.2
		c-2.6-5.8-5.3-13.2-9.1-20.1c-2-3.6-6.3-4.1-10.2-2.1c-3.8,2-6,5.4-4.7,9.4c2.1,6.6,4.8,13,7.8,19.3c1.8,3.8,5.7,5.1,9.8,3.8
		C216.8,149.3,219,146.3,219.2,140.2z M388.8,265.2C388.8,265.2,388.8,265.2,388.8,265.2c3.2,0,6.3,0.2,9.5-0.1
		c4.7-0.4,7.9-4.1,7.9-8.6c0-4.6-3.2-8.4-8-8.6c-6.3-0.3-12.6-0.3-19,0c-4.7,0.2-8.1,3.9-8.2,8.4c-0.1,4.7,3.3,8.6,8.3,8.9
		C382.5,265.4,385.6,265.2,388.8,265.2z M124.9,247.8c-3.2,0-6.3-0.1-9.5,0c-5.1,0.3-8.5,3.7-8.6,8.5c-0.1,4.8,3.3,8.6,8.3,8.8
		c6.1,0.2,12.3,0.2,18.5,0c5-0.2,8.4-4,8.4-8.8c-0.1-4.7-3.6-8.3-8.6-8.6C130.5,247.7,127.7,247.8,124.9,247.8z M265.2,124.8
		C265.2,124.8,265.2,124.8,265.2,124.8c0-1.7,0.1-3.3,0-5s0.1-3.3-0.1-5c-0.5-4.7-4-7.9-8.6-8c-4.6,0-8.4,3.2-8.6,7.9
		c-0.3,6.3-0.3,12.6,0,19c0.2,4.9,4.1,8.4,8.9,8.3c4.5-0.1,8.1-3.5,8.4-8.2C265.3,130.8,265.2,127.7,265.2,124.8z M247.8,388.5
		c0,3.2-0.2,6.3,0,9.5c0.3,5,4,8.3,8.8,8.2c4.6-0.1,8.3-3.3,8.5-8.1c0.2-6.3,0.2-12.6,0-19c-0.2-4.7-4-8-8.5-8.1
		c-4.7,0-8.4,3.5-8.7,8.4C247.7,382.5,247.8,385.5,247.8,388.5z"/>
	<path class="st2" style="fill-rule:evenodd;clip-rule:evenodd;" d="M256.4,441.4c92.5-0.1,172-68.9,183.2-160.3c8.2-67.3-14.3-123.5-65.9-167.8
		c-0.9-0.8-1.8-1.5-2.7-2.2c-4.5-3.9-5.2-8.7-2-12.7c3.3-4.2,8.6-4.8,13.2-0.7c8.7,7.8,17.9,15.2,25.4,24
		c50.5,59.7,65.7,127.6,39.7,201.5c-26,74-80,118.9-157.3,132.7C177,476,70.8,396.8,55.8,283.1C41.1,172,118.6,70.8,229.9,55.7
		c19-2.6,37.9-2.3,56.8,0.3c6.3,0.9,10,4.7,9.3,10.1c-0.7,5.5-5.3,8.4-12,7.4c-48.3-6.7-93.2,2.9-132.9,31.2
		c-57,40.7-83.6,97.2-78.7,166.8C79.1,367.4,160.4,441.5,256.4,441.4z"/>
	<path class="st2" style="fill-rule:evenodd;clip-rule:evenodd;" d="M198.3,318.1c2.3,0,4,0,5.6,0c13.8,0,27.7,0,41.5,0c6.9,0,11,3.3,11.1,8.8
		c0.1,5.5-4.1,8.9-10.9,9c-15.3,0-30.6,0-46,0c-0.2,0-0.3,0-0.5,0c-13.4-0.3-21.3-11.2-17.3-24c1.8-5.7,3.6-11.4,5.7-17
		c6.7-18.6,18.4-33.4,35.8-42.6c11.9-6.3,17.3-14.8,15.7-28.1c-0.5-3.8,0-7.7-0.1-11.5c-0.3-10.3-7.5-17.5-17.7-17.8
		c-0.3,0-0.7,0-1,0c-19.6-1.7-26.9,8.1-25.4,24.7c0.6,6.4-3.4,10.5-8.7,10.5c-5.3,0-9-4-8.8-10.4c0.1-5.5-0.1-11.2,1.4-16.3
		c3.9-14,13.4-23,27.9-25.3c7-1.1,14.3-1,21.3,0.1c15.3,2.2,27.2,15.3,28.3,30.6c0.6,8.6,0.6,17.3,0.2,26
		c-0.5,12.2-6.4,21.5-16.6,28.1c-3.4,2.2-6.9,4.1-10.2,6.2c-11.8,7.5-20.2,17.7-25,30.8C202.3,305.6,200.5,311.6,198.3,318.1z"/>
	<path class="st2" style="fill-rule:evenodd;clip-rule:evenodd;" d="M335.9,264.9c14.2,1.4,17.7,3,17.4,8.9c-0.6,11.5-9.9,8.7-17.4,9.4
		c0,11.5,0,22.8,0,34.1c0,2.7,0,5.3,0,8c-0.1,6.4-3.6,10.6-8.8,10.6c-5.3,0.1-8.9-4.1-8.9-10.5c0-12.2,0-24.3,0-36.5
		c0-1.8,0-3.6,0-5.9c-10.4,0-20.3,0-30.3,0c-4,0-8,0-12,0c-9.3-0.1-13.2-6.8-8.4-14.8c14.9-25,29.9-49.9,44.9-74.9
		c1.9-3.1,3.7-6.3,5.6-9.4c3.4-5.6,6.7-7.4,11.2-6.1c4.6,1.3,6.6,4.5,6.6,10.9c0,23.5,0,47,0,70.5
		C335.9,260.9,335.9,262.7,335.9,264.9z M290,264.8c9.8,0,18.8,0,27.6,0c0-15.3,0-30.2,0-46.1C308.1,234.6,299.2,249.5,290,264.8z"
		/>
	<path class="st2" style="fill-rule:evenodd;clip-rule:evenodd;" d="M324.9,66c1.4,0.5,3.4,1,5.2,1.7c5.8,2.5,11.7,4.9,17.3,7.7
		c4.8,2.4,6.4,7.5,4.2,11.8c-2.1,4.2-6.8,6-11.5,4c-6.5-2.7-12.9-5.5-19.2-8.4c-4.3-2-6.1-6-4.9-10.3
		C317.1,68.4,320.2,66.4,324.9,66z"/>
	<path class="st2" style="fill-rule:evenodd;clip-rule:evenodd;" d="M180.3,168.6c-1.6,2.1-2.9,5.5-5.3,6.5c-2.6,1.1-7.1,1.1-9.1-0.5
		c-5.3-4.2-9.9-9.4-14.4-14.5c-2.9-3.3-2.2-8.4,1-11.3c3.4-3.1,7.5-3.8,10.9-0.8c5.2,4.6,9.9,9.8,14.6,15
		C179,164.1,179.3,166,180.3,168.6z"/>
	<path class="st2" style="fill-rule:evenodd;clip-rule:evenodd;" d="M127.9,190.3c0.7,0.2,1.7,0.2,2.6,0.6c5.8,2.5,11.7,4.9,17.3,7.7
		c4.5,2.3,6,7.2,3.9,11.5c-1.9,4-6.6,6.1-11,4.3c-5.9-2.3-11.7-4.9-17.3-7.7c-3.8-1.9-5.3-5.6-4.2-9.7
		C120.3,192.8,123.4,190.8,127.9,190.3z"/>
	<path class="st2" style="fill-rule:evenodd;clip-rule:evenodd;" d="M219.2,140.2c-0.2,6.1-2.3,9-6.4,10.3c-4.1,1.3-7.9,0-9.8-3.8
		c-3-6.2-5.7-12.7-7.8-19.3c-1.3-4,0.8-7.5,4.7-9.4c3.9-2,8.2-1.5,10.2,2.1C213.9,127,216.6,134.4,219.2,140.2z"/>
	<path class="st2" style="fill-rule:evenodd;clip-rule:evenodd;" d="M388.8,265.2c-3.2,0-6.3,0.2-9.5,0c-4.9-0.3-8.4-4.2-8.3-8.9
		c0.1-4.5,3.5-8.2,8.2-8.4c6.3-0.2,12.6-0.2,19,0c4.7,0.2,8,4,8,8.6c0,4.6-3.2,8.3-7.9,8.6C395.1,265.4,392,265.2,388.8,265.2
		C388.8,265.2,388.8,265.2,388.8,265.2z"/>
	<path class="st2" style="fill-rule:evenodd;clip-rule:evenodd;" d="M124.9,247.8c2.8,0,5.7-0.1,8.5,0c5,0.3,8.5,3.9,8.6,8.6
		c0.1,4.7-3.4,8.6-8.4,8.8c-6.1,0.2-12.3,0.2-18.5,0c-5-0.2-8.4-4-8.3-8.8c0.1-4.8,3.5-8.3,8.6-8.5
		C118.5,247.7,121.7,247.8,124.9,247.8z"/>
	<path class="st2" style="fill-rule:evenodd;clip-rule:evenodd;" d="M265.2,124.8c0,3,0.2,6,0,9c-0.3,4.7-3.9,8.1-8.4,8.2
		c-4.7,0.1-8.7-3.3-8.9-8.3c-0.2-6.3-0.2-12.6,0-19c0.2-4.7,4-7.9,8.6-7.9c4.6,0,8.2,3.2,8.6,8c0.2,1.6,0.1,3.3,0.1,5
		S265.2,123.1,265.2,124.8C265.2,124.8,265.2,124.8,265.2,124.8z"/>
	<path class="st2" style="fill-rule:evenodd;clip-rule:evenodd;" d="M247.8,388.5c0-3-0.1-6,0-9c0.3-5,4-8.5,8.7-8.4c4.5,0,8.4,3.4,8.5,8.1
		c0.3,6.3,0.2,12.6,0,19c-0.2,4.8-3.9,8-8.5,8.1c-4.8,0.1-8.5-3.2-8.8-8.2C247.6,394.8,247.8,391.6,247.8,388.5z"/>
	<path class="st2" style="fill-rule:evenodd;clip-rule:evenodd;fill:#FFFFFF;" d="M290,264.8c9.2-15.3,18.1-30.2,27.6-46.1c0,15.9,0,30.8,0,46.1
		C308.8,264.8,299.8,264.8,290,264.8z"/>
</g>
</svg>
