<?xml version="1.0" encoding="utf-8"?>
<!-- Generator: Adobe Illustrator 16.0.0, SVG Export Plug-In . SVG Version: 6.00 Build 0)  -->
<!DOCTYPE svg PUBLIC "-//W3C//DTD SVG 1.1//EN" "http://www.w3.org/Graphics/SVG/1.1/DTD/svg11.dtd">
<svg version="1.1" id="Layer_1" xmlns="http://www.w3.org/2000/svg" xmlns:xlink="http://www.w3.org/1999/xlink" x="0px" y="0px"
	 width="511px" height="511px" viewBox="0 0 511 511" style="enable-background:new 0 0 511 511;" xml:space="preserve">
<style type="text/css">

	 <![CDATA[

		.st0{
		fill:rgba(0,0,0,1);
	    stroke-width:2;
	    stroke-miterlimit:10;

		}
	]]>
</style>

<g>
	<path class="st0" d="M428,512c-127.3,0-254.7,0-382,0c-6.1-2.8-8-7.8-8-14.2c0.2-14,0.1-28,0.1-42c0-2.4,0-4.9,0-7.8c-7.5,0-14.2,0.1-21,0
		c-5.9-0.1-12.7-6.9-11.6-11.4c1.4-6,6.2-9.7,12.7-9.8c6.4-0.1,12.9,0,19.6,0c0-14.5,0-28.4,0-42.8c-7.3,0-14.2,0.1-21.2,0
		c-5.5-0.1-12.1-7.1-11.1-11.3c1.5-6,6.3-9.7,12.7-9.8c6.4-0.1,12.9,0,19.6,0c0-14.5,0-28.3,0-42.7c-2.1,0-3.9,0-5.7,0
		c-5.3,0-10.7,0.2-16-0.1c-5.7-0.3-11.9-7.5-10.4-11.7c2.4-6.8,6.1-9.4,13.5-9.4c6.1,0,12.2,0,18.5,0c0-14.5,0-28.3,0-42.6
		c-2.3,0-4.3,0-6.3,0c-5,0-10,0.2-15-0.1c-6-0.3-12.3-7.5-10.7-11.9c2.5-6.8,6.1-9.3,13.6-9.3c6.1,0,12.2,0,18.4,0
		c0-14.5,0-28.4,0-42.5c-2.7,0-5.1,0-7.4,0c-4.7,0-9.3,0.2-14-0.1c-5-0.3-10.3-4.5-10.5-9.7c-0.1-3,2.4-6.8,4.8-9.1
		c1.9-1.8,5.4-2.2,8.3-2.4c6.2-0.3,12.5-0.1,18.9-0.1c0-14.5,0-28.2,0-42.5c-2.1,0-3.9,0-5.7,0c-5.2,0-10.3,0.2-15.5-0.1
		c-5.2-0.2-10.7-4.6-10.9-9.9c-0.1-3,2.5-6.8,5-9c1.9-1.7,5.5-2.1,8.4-2.3c6.2-0.3,12.5-0.1,18.7-0.1c0-14.7,0-28.4,0-42.5
		c-3.6,0-6.9,0-10.2,0c-3.5,0-7,0.1-10.5,0c-6.2-0.3-13-7.5-11.4-12c2.2-6.4,6.1-9.2,13.1-9.3c6.3,0,12.6,0,19.4,0
		c0-9.9,0.1-19.2,0-28.5C37.9,8.8,39.9,3.8,46,1c127.3,0,254.7,0,382,0c6,2.6,12.6,4.4,18,8c12,8.1,17.8,19.9,18.1,34.4
		c0.1,7.1,0,14.2,0,21.5c10.1,0,19.5,0.6,28.8-0.2c9.4-0.8,15,6.4,15,15.1c-0.1,44.5,0,89,0,133.5c0,80.5,0,161,0,241.5
		c0,7.7-5.4,15.4-14.3,14.7c-9.6-0.8-19.2-0.2-29.1-0.2c-0.2,1.7-0.4,3-0.5,4.3c-1.5,12.2-6.6,22.6-16.7,29.5
		C441.5,507,434.4,509.1,428,512z M59.9,490.9c2.4,0,4.2,0,6,0c117.2,0,234.3,0,351.5,0c17.4,0,25.6-8.3,25.5-25.9
		c-0.1-47.8-0.1-95.6-0.2-143.5c-0.1-39.5-0.2-79-0.2-118.5c0-52,0.3-104,0.3-156c0-16.5-8.5-24.9-25-24.9c-117.5,0-235,0-352.5,0
		c-1.8,0-3.5,0-5.4,0c0,7.4,0,14.2,0,21.5c6.8,0,13.2-0.3,19.7,0.1c2.8,0.2,6,1.1,8.2,2.7c3.7,2.7,4.4,7.1,2.8,11.3
		c-1.6,4.5-5.1,7-9.9,7c-6.9,0.1-13.9,0-20.8,0c0,14.5,0,28.3,0,42.6c3.6,0,6.9,0,10.2,0c3.5,0,7-0.1,10.5,0.1
		c7.4,0.4,11.8,6,10.4,12.8c-1.1,5.2-5.3,8.4-11.4,8.5c-6.6,0.1-13.2,0-19.7,0c0,14.5,0,28.3,0,42.5c7.1,0,14-0.2,20.7,0.1
		c7.8,0.3,12.7,7.4,9.9,14.3c-1.9,4.9-5.8,7-11,7c-6.6,0-13.2,0-19.6,0c0,14.6,0,28.4,0,42.5c7.2,0,14-0.2,20.8,0.1
		c7.5,0.3,12.2,7,10,13.9c-1.4,4.4-5.4,7.2-10.8,7.3c-6.7,0.1-13.5,0-20.1,0c0,14.6,0,28.4,0,42c0.6,0.2,0.9,0.5,1.2,0.5
		c6.2,0.1,12.3,0,18.5,0.1c7.1,0.1,11.8,4.6,11.7,10.9c-0.2,6.1-4.8,10.2-11.7,10.3c-6.5,0.1-12.9,0-19.7,0c0,14.4,0,28.3,0,42.7
		c7.1,0,13.9-0.1,20.7,0c7.2,0.2,11.8,6,10.4,12.8c-1,5-5,8.2-10.4,8.3c-6.9,0.1-13.8,0-20.8,0c0,14.6,0,28.4,0,42.7
		c6.4,0,12.5,0,18.6,0c2,0,4.1,0,5.9,0.6c4.7,1.6,7.5,6.6,6.7,11.5c-0.8,5-4.7,8.8-9.9,8.9c-7.1,0.2-14.2,0-21.5,0
		C59.9,462.6,59.9,476.4,59.9,490.9z M464.3,128.5c7.2,0,13.8,0,20.4,0c0-14.3,0-28.3,0-42.2c-7,0-13.6,0-20.4,0
		C464.3,100.5,464.3,114.3,464.3,128.5z M464.4,150.4c0,14.2,0,28.1,0,41.9c7.1,0,13.8,0,20.5,0c0-14.2,0-27.9,0-41.9
		C478,150.4,471.5,150.4,464.4,150.4z M484.8,256.2c0-14.2,0-28,0-41.8c-7,0-13.6,0-20.5,0c0,14,0,27.8,0,41.8
		C471.2,256.2,477.8,256.2,484.8,256.2z M484.8,320.1c0-14.3,0-28,0-41.7c-7.1,0-13.8,0-20.4,0c0,14.2,0,27.9,0,41.7
		C471.4,320.1,478,320.1,484.8,320.1z M484.9,342.2c-7.2,0-13.8,0-20.6,0c0,14.1,0,27.8,0,41.7c7,0,13.7,0,20.6,0
		C484.9,369.8,484.9,356.1,484.9,342.2z M485,406c-7.2,0-13.8,0-20.6,0c0,14.1,0,28,0,41.7c7.1,0,13.8,0,20.6,0
		C485,433.7,485,420.1,485,406z"/>
	<path class="st0" style="fill-rule:evenodd;clip-rule:evenodd;fill:#FFFFFF;" d="M46,1c-6.1,2.8-8.1,7.8-7.9,14.2c0.2,9.3,0,18.6,0,28.5
		c-6.8,0-13.1,0-19.4,0c-7,0.1-10.9,2.8-13.1,9.3c-1.5,4.5,5.2,11.7,11.4,12c3.5,0.1,7,0,10.5,0c3.3,0,6.6,0,10.2,0
		c0,14.1,0,27.9,0,42.5c-6.2,0-12.5-0.2-18.7,0.1c-2.9,0.1-6.4,0.5-8.4,2.3c-2.5,2.2-5,6-5,9c0.2,5.3,5.7,9.7,10.9,9.9
		c5.2,0.2,10.3,0.1,15.5,0.1c1.8,0,3.6,0,5.7,0c0,14.2,0,28,0,42.5c-6.4,0-12.6-0.2-18.9,0.1c-2.9,0.2-6.4,0.6-8.3,2.4
		c-2.4,2.3-4.9,6.1-4.8,9.1c0.2,5.2,5.5,9.4,10.5,9.7c4.6,0.3,9.3,0.1,14,0.1c2.3,0,4.6,0,7.4,0c0,14.1,0,28,0,42.5
		c-6.2,0-12.3,0-18.4,0c-7.5,0-11.1,2.6-13.6,9.3c-1.6,4.4,4.7,11.6,10.7,11.9c5,0.3,10,0.1,15,0.1c2,0,4,0,6.3,0
		c0,14.3,0,28.1,0,42.6c-6.3,0-12.4,0-18.5,0c-7.4,0-11.1,2.6-13.5,9.4c-1.5,4.2,4.7,11.4,10.4,11.7c5.3,0.3,10.7,0.1,16,0.1
		c1.8,0,3.6,0,5.7,0c0,14.4,0,28.3,0,42.7c-6.7,0-13.1,0-19.6,0c-6.5,0.1-11.3,3.8-12.7,9.8c-1,4.2,5.6,11.2,11.1,11.3
		c7,0.2,13.9,0,21.2,0c0,14.4,0,28.3,0,42.8c-6.7,0-13.1,0-19.6,0c-6.5,0.1-11.3,3.8-12.7,9.8c-1.1,4.5,5.7,11.3,11.6,11.4
		c6.8,0.1,13.6,0,21,0c0,2.9,0,5.3,0,7.8c0,14,0.1,28-0.1,42c-0.1,6.4,1.9,11.4,8,14.2c-15,0-30,0-45,0C1,341.7,1,171.3,1,1
		C16,1,31,1,46,1z"/>
	<path class="st0" style="fill-rule:evenodd;clip-rule:evenodd;fill:#FFFFFF;" d="M428,512c6.4-2.9,13.5-5,19.2-8.9
		c10.1-6.9,15.3-17.3,16.7-29.5c0.2-1.3,0.3-2.6,0.5-4.3c9.8,0,19.5-0.6,29.1,0.2c8.9,0.7,14.3-7,14.3-14.7c-0.1-80.5,0-161,0-241.5
		c0-44.5,0-89,0-133.5c0-8.7-5.6-15.8-15-15.1c-9.3,0.7-18.6,0.2-28.8,0.2c0-7.3,0.1-14.4,0-21.5C463.8,29,457.9,17.1,446,9
		c-5.4-3.6-12-5.4-18-8c28,0,56,0,84,0c0,170.3,0,340.7,0,511C484,512,456,512,428,512z"/>
	<path class="st0" style="fill-rule:evenodd;clip-rule:evenodd;fill:#FFFFFF;" d="M59.9,490.9c0-14.5,0-28.3,0-42.8c7.2,0,14.4,0.1,21.5,0
		c5.2-0.1,9.1-3.9,9.9-8.9c0.8-5-2-10-6.7-11.5c-1.8-0.6-3.9-0.6-5.9-0.6c-6.1-0.1-12.2,0-18.6,0c0-14.4,0-28.1,0-42.7
		c6.9,0,13.9,0.1,20.8,0c5.4-0.1,9.4-3.4,10.4-8.3c1.4-6.7-3.3-12.6-10.4-12.8c-6.8-0.2-13.6,0-20.7,0c0-14.4,0-28.3,0-42.7
		c6.7,0,13.2,0,19.7,0c6.9-0.1,11.6-4.2,11.7-10.3c0.2-6.3-4.6-10.8-11.7-10.9c-6.2-0.1-12.3-0.1-18.5-0.1c-0.3,0-0.6-0.2-1.2-0.5
		c0-13.6,0-27.4,0-42c6.6,0,13.3,0.1,20.1,0c5.4-0.1,9.4-2.9,10.8-7.3c2.2-6.9-2.5-13.6-10-13.9c-6.8-0.2-13.6-0.1-20.8-0.1
		c0-14.2,0-27.9,0-42.5c6.5,0,13,0,19.6,0c5.2,0,9.1-2.1,11-7c2.7-6.9-2.1-14-9.9-14.3c-6.8-0.3-13.6-0.1-20.7-0.1
		c0-14.2,0-28,0-42.5c6.5,0,13.1,0.1,19.7,0c6.1-0.1,10.3-3.3,11.4-8.5c1.4-6.8-3-12.3-10.4-12.8c-3.5-0.2-7-0.1-10.5-0.1
		c-3.3,0-6.6,0-10.2,0c0-14.3,0-28,0-42.6c6.9,0,13.8,0.1,20.8,0c4.8-0.1,8.3-2.6,9.9-7c1.6-4.3,0.9-8.6-2.8-11.3
		c-2.2-1.7-5.4-2.6-8.2-2.7c-6.4-0.4-12.9-0.1-19.7-0.1c0-7.3,0-14.1,0-21.5c1.9,0,3.7,0,5.4,0c117.5,0,235,0,352.5,0
		c16.5,0,25,8.4,25,24.9c-0.1,52-0.3,104-0.3,156c0,39.5,0.1,79,0.2,118.5c0.1,47.8,0.1,95.6,0.2,143.5c0,17.6-8.1,25.9-25.5,25.9
		c-117.2,0-234.3,0-351.5,0C64.1,490.9,62.3,490.9,59.9,490.9z"/>
	<path class="st0" style="fill-rule:evenodd;clip-rule:evenodd;fill:#FFFFFF;" d="M464.3,128.5c0-14.2,0-28.1,0-42.2c6.8,0,13.4,0,20.4,0
		c0,14,0,28,0,42.2C478.1,128.5,471.5,128.5,464.3,128.5z"/>
	<path class="st0" style="fill-rule:evenodd;clip-rule:evenodd;fill:#FFFFFF;" d="M464.4,150.4c7,0,13.6,0,20.5,0c0,14,0,27.7,0,41.9
		c-6.7,0-13.4,0-20.5,0C464.4,178.4,464.4,164.6,464.4,150.4z"/>
	<path class="st0" style="fill-rule:evenodd;clip-rule:evenodd;fill:#FFFFFF;" d="M484.8,256.2c-7,0-13.6,0-20.5,0c0-14.1,0-27.8,0-41.8
		c6.8,0,13.4,0,20.5,0C484.8,228.2,484.8,242,484.8,256.2z"/>
	<path class="st0" style="fill-rule:evenodd;clip-rule:evenodd;fill:#FFFFFF;" d="M484.8,320.1c-6.8,0-13.4,0-20.4,0c0-13.8,0-27.5,0-41.7
		c6.6,0,13.3,0,20.4,0C484.8,292,484.8,305.7,484.8,320.1z"/>
	<path class="st0" style="fill-rule:evenodd;clip-rule:evenodd;fill:#FFFFFF;" d="M484.9,342.2c0,14,0,27.7,0,41.7c-6.9,0-13.6,0-20.6,0
		c0-13.9,0-27.6,0-41.7C471.1,342.2,477.7,342.2,484.9,342.2z"/>
	<path class="st0" style="fill-rule:evenodd;clip-rule:evenodd;fill:#FFFFFF;" d="M485,406c0,14.1,0,27.7,0,41.7c-6.7,0-13.4,0-20.6,0
		c0-13.7,0-27.6,0-41.7C471.2,406,477.8,406,485,406z"/>
</g>
</svg>
