<?xml version="1.0" encoding="utf-8"?>
<!-- Generator: Adobe Illustrator 16.0.0, SVG Export Plug-In . SVG Version: 6.00 Build 0)  -->
<!DOCTYPE svg PUBLIC "-//W3C//DTD SVG 1.1//EN" "http://www.w3.org/Graphics/SVG/1.1/DTD/svg11.dtd">
<svg version="1.1" id="Layer_1" xmlns="http://www.w3.org/2000/svg" xmlns:xlink="http://www.w3.org/1999/xlink" x="0px" y="0px"
	 width="511px" height="511px" viewBox="0 0 511 511" style="enable-background:new 0 0 511 511;" xml:space="preserve">
<g>
	<path class="st1" style="fill:#FFFFFF;" d="M512,381c0,43.7,0,87.3,0,131c-170.3,0-340.7,0-511,0c0-43.7,0-87.3,0-131
		c4.7,14.1,14.6,19.4,29.4,19.3c57.3-0.4,114.6-0.2,172-0.2c1.9,0,3.9,0,6.1,0c0,10.9,0,21.1,0,32c-6.2,0-12.1,0-18.1,0
		c-11,0.1-20.5,3.8-28.4,11.5c-7.3,7.1-14.4,14.4-21.6,21.5c-2.8,2.8-4.6,6-2.9,9.8c1.8,4,5.2,5.8,9.6,5.8c73,0,146,0,219,0
		c4.4,0,7.9-1.8,9.6-5.8c1.7-3.8,0-7-2.9-9.8c-6.8-6.7-13.5-13.3-20.2-20.1c-8.6-8.9-19-13.1-31.4-12.9c-5.4,0.1-10.9,0-16.4,0
		c0-11,0-21.3,0-32c2.4,0,4.4,0,6.4,0c58.3,0,116.6,0.1,175-0.2c4.9,0,10.2-1.6,14.7-3.7C507.1,393.4,509.6,387.1,512,381z"/>
	<path class="st1" style="fill-rule:evenodd;clip-rule:evenodd;" d="M512,381c-2.4,6.1-4.9,12.4-11.2,15.3c-4.5,2.1-9.8,3.7-14.7,3.7
		c-58.3,0.3-116.6,0.2-175,0.2c-2,0-4,0-6.4,0c0,10.6,0,21,0,32c5.5,0,11,0.1,16.4,0c12.3-0.2,22.7,4.1,31.4,12.9
		c6.6,6.8,13.4,13.5,20.2,20.1c2.8,2.8,4.6,6,2.9,9.8c-1.8,4-5.2,5.8-9.6,5.8c-73,0-146,0-219,0c-4.4,0-7.9-1.8-9.6-5.8
		c-1.7-3.8,0-7,2.9-9.8c7.2-7.1,14.4-14.4,21.6-21.5c7.9-7.7,17.4-11.4,28.4-11.5c5.9,0,11.9,0,18.1,0c0-10.8,0-21.1,0-32
		c-2.2,0-4.1,0-6.1,0c-57.3,0-114.6-0.2-172,0.2C15.6,400.4,5.7,395.1,1,381c0-99,0-198,0-297c4.2-12.3,12.6-19.6,25.8-19.7
		c153.1-0.1,306.3-0.1,459.4,0c2.1,0,4.3,0.3,6.4,0.8c10.2,2.4,16.1,9.3,19.4,18.9C512,183,512,282,512,381z M17,352.2
		c0,7,0,13.3,0,19.6c0,10.6,1.8,12.4,12.5,12.4c151.3,0,302.7,0,454,0c1.8,0,4,0.6,5.4-0.2c2.5-1.5,6.4-3.6,6.5-5.7
		c0.8-8.5,0.3-17.1,0.3-26c-8.2,0-15.9,0.4-23.5-0.2c-2.5-0.2-5.8-2.2-7-4.3c-1.1-1.9-0.9-6,0.5-7.7c1.8-2.1,5.3-3.4,8.1-3.6
		c7.2-0.5,14.5-0.2,21.9-0.2c0.1-1.7,0.2-2.7,0.2-3.6c0-80.7,0-161.3,0-242c0-7.2-2.8-9.8-10.7-9.8c-152.5,0-305,0-457.5,0
		c-8.5,0-10.9,2.4-10.9,11c0,79.7,0,159.3,0,239c0,1.6,0.1,3.2,0.2,5.4c2.4,0,4.5,0,6.7,0c94.8,0,189.7,0,284.5,0
		c1.8,0,3.7-0.1,5.5,0.1c4.4,0.6,7.3,4.1,7.2,8.2c-0.2,4.2-3.3,7.2-7.8,7.6c-1.7,0.1-3.3,0-5,0c-94.7,0-189.3,0-284,0
		C22.1,352.2,19.9,352.2,17,352.2z M164.9,463.8c61.3,0,122,0,183.2,0c-7.7-9.7-16.1-16-29.1-15.9c-41.5,0.5-82.9,0.5-124.4,0
		C181.4,447.7,172.7,453.8,164.9,463.8z M225,400.4c0,10.6,0,21,0,31.3c21.3,0,42.1,0,63.1,0c0-10.6,0-20.8,0-31.3
		C266.9,400.4,246.1,400.4,225,400.4z"/>
	<path class="st1" style="fill-rule:evenodd;clip-rule:evenodd;fill:#FFFFFF;" d="M512,84c-3.3-9.6-9.2-16.4-19.4-18.9c-2.1-0.5-4.3-0.8-6.4-0.8
		c-153.1,0-306.3-0.1-459.4,0C13.6,64.4,5.2,71.7,1,84C1,56.4,1,28.7,1,1c170.3,0,340.7,0,511,0C512,28.7,512,56.4,512,84z"/>
	<path class="st1" style="fill-rule:evenodd;clip-rule:evenodd;fill:#FFFFFF;" d="M17,352.2c2.9,0,5.1,0,7.2,0c94.7,0,189.3,0,284,0
		c1.7,0,3.3,0.1,5,0c4.5-0.3,7.6-3.4,7.8-7.6c0.2-4.1-2.7-7.6-7.2-8.2c-1.8-0.3-3.7-0.1-5.5-0.1c-94.8,0-189.7,0-284.5,0
		c-2.1,0-4.3,0-6.7,0c-0.1-2.1-0.2-3.7-0.2-5.4c0-79.7,0-159.3,0-239c0-8.6,2.4-11,10.9-11c152.5,0,305,0,457.5,0
		c7.8,0,10.7,2.5,10.7,9.8c0,80.7,0,161.3,0,242c0,1-0.1,1.9-0.2,3.6c-7.4,0-14.7-0.3-21.9,0.2c-2.9,0.2-6.3,1.5-8.1,3.6
		c-1.4,1.6-1.7,5.7-0.5,7.7c1.2,2.1,4.5,4.2,7,4.3c7.6,0.6,15.3,0.2,23.5,0.2c0,8.9,0.4,17.5-0.3,26c-0.2,2.1-4,4.3-6.5,5.7
		c-1.4,0.8-3.6,0.2-5.4,0.2c-151.3,0-302.7,0-454,0c-10.7,0-12.5-1.8-12.5-12.4C17,365.5,17,359.2,17,352.2z M192.2,224.2
		c0,24.3-0.1,48.6,0,73c0.1,13.6,12.8,21.5,24.3,14.7c41.1-24.4,82-49,122.9-73.6c4.4-2.6,7.1-6.5,7.7-11.6
		c0.8-7.7-2.7-12.9-9.2-16.8c-39.7-23.7-79.4-47.5-119.1-71.3c-6-3.6-11.9-5.2-18.3-1.6c-6.6,3.7-8.4,9.7-8.4,16.9
		C192.3,177.2,192.2,200.7,192.2,224.2z M224.5,96.9c-56.8,0-113.6,0-170.4,0c-4.3,0-8.7-0.1-13,0c-4.8,0.2-8,3.3-8.1,7.7
		c-0.1,4.3,3.1,7.7,7.8,8.2c1.3,0.1,2.7,0.1,4,0.1c119.9,0,239.9,0,359.8,0c2.1,0,4.4,0,6.4-0.7c3.7-1.2,5.6-4.2,5.2-8.1
		c-0.4-4-2.8-6.3-6.7-7c-1.6-0.3-3.3-0.1-5-0.1C344.4,96.9,284.5,96.9,224.5,96.9z M456,96.9c-5.2,0-10.3-0.1-15.5,0
		c-4.8,0.1-8.1,3.2-8.4,7.5c-0.2,4.3,3.3,8.2,8.1,8.3c10.5,0.2,21,0.2,31.5,0c5-0.1,8.4-3.6,8.3-8.1c-0.1-4.5-3.4-7.7-8.6-7.8
		C466.3,96.8,461.1,96.9,456,96.9z M400.1,344.7C400.1,344.7,400.1,344.7,400.1,344.7c0-2.8,0.1-5.7,0-8.5c-0.2-4.5-3.3-7.6-7.5-7.9
		c-4-0.3-8,2.8-8.3,7.1c-0.4,6-0.4,12,0,17.9c0.3,4.3,4.2,7.2,8.4,6.8c4.4-0.5,7-3,7.3-7.4C400.3,350.1,400.1,347.4,400.1,344.7z
		 M424.2,344.4C424.2,344.4,424.1,344.4,424.2,344.4c0,2.7-0.2,5.3,0,8c0.3,4.7,3.7,7.9,8,7.8c4.4,0,7.7-3.2,7.8-8
		c0.2-5.3,0.2-10.7,0-16c-0.2-4.6-3.7-8-8-7.9c-4.1,0-7.5,3.2-7.9,7.5C424,338.7,424.2,341.5,424.2,344.4z M360.2,344.2
		c0-2.7,0.1-5.3,0-8c-0.3-4.5-3.4-7.6-7.5-7.8c-4-0.2-8,2.8-8.2,7.1c-0.4,6-0.4,12,0.1,17.9c0.3,4.4,4.2,7.2,8.4,6.7
		c4.4-0.5,6.9-3,7.2-7.5C360.3,349.8,360.2,347,360.2,344.2z"/>
	<path class="st1" style="fill-rule:evenodd;clip-rule:evenodd;fill:#FFFFFF;" d="M164.9,463.8c7.8-10,16.4-16.1,29.7-15.9
		c41.5,0.6,82.9,0.5,124.4,0c13-0.2,21.4,6.1,29.1,15.9C286.9,463.8,226.3,463.8,164.9,463.8z"/>
	<path class="st1" style="fill-rule:evenodd;clip-rule:evenodd;fill:#FFFFFF;" d="M225,400.4c21.1,0,42,0,63.1,0c0,10.5,0,20.8,0,31.3
		c-21,0-41.9,0-63.1,0C225,421.4,225,411.1,225,400.4z"/>
	<path class="st1" style="fill-rule:evenodd;clip-rule:evenodd;" d="M192.2,224.2c0-23.5,0.1-47,0-70.5c0-7.2,1.8-13.2,8.4-16.9
		c6.4-3.6,12.3-2,18.3,1.6c39.6,23.9,79.3,47.6,119.1,71.3c6.5,3.9,10,9.1,9.2,16.8c-0.6,5.2-3.3,9-7.7,11.6
		c-41,24.6-81.9,49.2-122.9,73.6c-11.4,6.8-24.2-1.1-24.3-14.7C192.2,272.8,192.2,248.5,192.2,224.2z M331.4,224.6
		c-41.2-24.7-81.9-49-123-73.6c0,49.5,0,98,0,147.3C249.6,273.6,290.3,249.2,331.4,224.6z"/>
	<path class="st1" style="fill-rule:evenodd;clip-rule:evenodd;" d="M224.5,96.9c60,0,119.9,0,179.9,0c1.7,0,3.4-0.1,5,0.1c3.9,0.7,6.3,3,6.7,7
		c0.4,4-1.4,6.9-5.2,8.1c-2,0.7-4.2,0.7-6.4,0.7c-119.9,0-239.8,0-359.8,0c-1.3,0-2.7,0.1-4-0.1c-4.7-0.5-7.9-3.9-7.8-8.2
		c0.1-4.4,3.3-7.5,8.1-7.7c4.3-0.1,8.7,0,13,0C110.9,96.9,167.7,96.9,224.5,96.9z"/>
	<path class="st1" style="fill-rule:evenodd;clip-rule:evenodd;" d="M456,96.9c5.2,0,10.3-0.1,15.5,0c5.2,0.1,8.5,3.2,8.6,7.8
		c0.1,4.5-3.3,8-8.3,8.1c-10.5,0.2-21,0.2-31.5,0c-4.9-0.1-8.4-4-8.1-8.3c0.2-4.3,3.6-7.4,8.4-7.5C445.7,96.8,450.8,96.9,456,96.9z"
		/>
	<path class="st1" style="fill-rule:evenodd;clip-rule:evenodd;" d="M400.1,344.7c0,2.7,0.2,5.3,0,8c-0.3,4.5-2.9,7-7.3,7.4
		c-4.2,0.4-8.1-2.4-8.4-6.8c-0.4-6-0.4-12,0-17.9c0.3-4.3,4.3-7.3,8.3-7.1c4.2,0.3,7.2,3.4,7.5,7.9
		C400.3,339.1,400.1,341.9,400.1,344.7C400.1,344.7,400.1,344.7,400.1,344.7z"/>
	<path class="st1" style="fill-rule:evenodd;clip-rule:evenodd;" d="M424.2,344.4c0-2.8-0.2-5.7,0-8.5c0.4-4.4,3.8-7.5,7.9-7.5
		c4.3,0,7.8,3.3,8,7.9c0.2,5.3,0.2,10.7,0,16c-0.1,4.8-3.4,7.9-7.8,8c-4.4,0-7.7-3.1-8-7.8C424,349.7,424.1,347,424.2,344.4
		C424.1,344.4,424.2,344.4,424.2,344.4z"/>
	<path class="st1" style="fill-rule:evenodd;clip-rule:evenodd;" d="M360.2,344.2c0,2.8,0.1,5.7,0,8.5c-0.3,4.5-2.8,7-7.2,7.5
		c-4.2,0.5-8.1-2.4-8.4-6.7c-0.4-6-0.4-12-0.1-17.9c0.3-4.3,4.2-7.3,8.2-7.1c4.1,0.2,7.3,3.4,7.5,7.8
		C360.3,338.9,360.2,341.5,360.2,344.2z"/>
	<path class="st1" style="fill-rule:evenodd;clip-rule:evenodd;fill:#FFFFFF;" d="M331.4,224.6c-41.2,24.7-81.8,49-123,73.6
		c0-49.3,0-97.8,0-147.3C249.5,175.5,290.2,199.9,331.4,224.6z"/>
</g>
</svg>
